<?xml version="1.0" standalone="no"?>
<!DOCTYPE svg PUBLIC "-//W3C//DTD SVG 20010904//EN"
 "http://www.w3.org/TR/2001/REC-SVG-20010904/DTD/svg10.dtd">
<svg version="1.0" xmlns="http://www.w3.org/2000/svg"
 width="1867.000000pt" height="1867.000000pt" viewBox="0 0 1867.000000 1867.000000"
 preserveAspectRatio="xMidYMid meet">
<metadata>
Created by potrace 1.14, written by Peter Selinger 2001-2017
</metadata>
<g transform="translate(0.000000,1867.000000) scale(0.100000,-0.100000)"
fill="#000000" stroke="none">
<path d="M16087 18574 c-1 -1 -59 -4 -128 -8 -70 -3 -133 -8 -140 -10 -8 -3
-36 -7 -64 -10 -27 -3 -61 -8 -75 -11 -14 -3 -41 -8 -60 -11 -19 -3 -43 -7
-52 -10 -9 -3 -26 -7 -39 -9 -172 -33 -472 -150 -664 -258 -72 -41 -254 -160
-290 -189 -11 -9 -49 -40 -85 -69 -62 -50 -283 -267 -325 -319 -11 -14 -46
-59 -78 -100 -31 -41 -61 -79 -65 -85 -88 -111 -300 -526 -326 -640 -2 -5 -14
-48 -28 -95 -26 -85 -52 -188 -62 -245 -27 -151 -34 -203 -42 -305 -15 -185 0
-468 33 -630 8 -41 17 -84 19 -95 11 -60 16 -83 25 -110 42 -144 51 -172 60
-187 5 -10 9 -26 9 -36 0 -10 4 -22 8 -27 5 -6 19 -37 32 -70 36 -92 151 -312
215 -411 330 -507 831 -888 1400 -1063 112 -34 294 -76 370 -85 28 -4 66 -9
85 -11 88 -14 401 -20 480 -11 19 3 67 7 105 11 108 10 349 61 472 100 561
177 1038 535 1363 1022 77 115 190 324 242 448 54 129 136 417 153 535 3 25 8
52 10 60 30 110 27 595 -5 770 -5 30 -12 71 -15 90 -3 19 -17 82 -32 140 -176
710 -681 1334 -1350 1669 -246 123 -601 227 -838 247 -133 11 -314 21 -318 18z"/>
<path d="M8717 18123 c-1 -1 -63 -4 -137 -8 -74 -4 -156 -8 -182 -10 -117 -8
-225 -17 -248 -20 -14 -2 -56 -6 -95 -10 -38 -3 -81 -8 -95 -10 -14 -2 -47 -6
-75 -10 -65 -8 -100 -13 -214 -31 -51 -8 -108 -16 -125 -19 -54 -7 -135 -22
-326 -59 -73 -14 -184 -39 -255 -58 -44 -11 -91 -22 -105 -24 -14 -3 -32 -7
-40 -10 -8 -3 -26 -8 -40 -10 -70 -14 -412 -115 -610 -181 -505 -168 -1168
-462 -1531 -679 -31 -19 -62 -34 -68 -34 -6 0 -11 -4 -11 -10 0 -5 -4 -10 -10
-10 -26 0 -460 -274 -680 -429 -606 -428 -1148 -913 -1615 -1445 -33 -37 -65
-73 -70 -80 -152 -171 -430 -531 -580 -751 -49 -71 -108 -158 -132 -192 -24
-35 -43 -65 -43 -68 0 -3 -16 -28 -35 -55 -19 -27 -35 -52 -35 -54 0 -2 -22
-40 -48 -83 -60 -96 -193 -328 -254 -443 -53 -99 -218 -427 -218 -434 0 -4
-14 -34 -96 -213 -13 -28 -24 -55 -24 -58 0 -3 -9 -25 -19 -48 -51 -112 -192
-485 -246 -652 -127 -391 -231 -796 -295 -1145 -6 -30 -12 -66 -15 -80 -5 -26
-17 -96 -20 -120 -1 -8 -5 -35 -9 -60 -4 -25 -9 -56 -11 -70 -3 -24 -13 -88
-20 -140 -2 -14 -7 -47 -10 -75 -3 -27 -8 -66 -10 -85 -3 -19 -7 -62 -10 -95
-3 -33 -8 -71 -10 -85 -2 -14 -7 -71 -10 -128 -4 -57 -8 -115 -10 -130 -22
-182 -22 -1062 0 -1203 2 -13 6 -67 10 -120 3 -53 7 -107 10 -120 2 -13 6 -60
10 -104 4 -44 8 -89 10 -100 2 -11 6 -46 10 -79 4 -32 9 -70 11 -85 2 -14 6
-39 9 -56 2 -16 7 -52 10 -80 4 -27 9 -61 11 -75 3 -14 13 -74 23 -135 11 -60
22 -121 25 -135 3 -14 8 -36 10 -50 3 -14 10 -50 16 -80 6 -30 13 -66 16 -80
13 -68 108 -444 144 -571 96 -336 264 -812 365 -1032 14 -31 25 -58 25 -61 0
-12 177 -388 243 -516 39 -74 77 -148 85 -165 16 -32 184 -328 217 -381 11
-18 40 -66 64 -106 194 -321 552 -812 801 -1098 26 -30 65 -75 86 -100 42 -49
80 -91 164 -184 62 -69 472 -479 514 -514 14 -12 55 -48 89 -79 34 -31 78 -71
98 -89 83 -74 385 -318 529 -426 308 -231 670 -466 1005 -653 138 -77 484
-254 600 -307 180 -82 222 -101 358 -157 81 -33 153 -61 160 -61 7 0 17 -4 23
-9 17 -16 397 -149 614 -215 130 -39 365 -106 395 -112 35 -7 58 -12 160 -38
89 -22 215 -50 285 -63 14 -2 57 -10 95 -18 39 -8 84 -16 100 -19 17 -3 84
-14 150 -25 171 -28 340 -51 495 -66 30 -3 69 -8 85 -10 17 -2 73 -7 125 -10
52 -4 115 -9 140 -11 263 -22 968 -22 1210 0 25 3 83 7 130 11 87 6 144 12
215 20 22 2 67 7 100 10 54 5 113 13 155 20 15 3 84 12 145 20 17 2 44 6 60 9
17 3 61 10 99 16 37 6 98 17 135 25 36 7 86 16 111 20 24 4 47 8 51 10 3 2 21
7 40 10 25 4 352 81 424 99 152 39 395 112 585 177 113 38 210 71 215 73 6 1
19 6 30 11 11 4 81 31 155 60 132 51 295 118 375 154 324 146 617 296 885 454
74 44 144 85 155 91 11 7 46 28 77 49 31 20 60 37 63 37 3 0 11 5 18 10 7 6
98 68 202 139 155 104 394 276 465 334 8 6 35 28 60 47 51 40 48 37 190 154
58 48 121 101 140 119 19 17 53 47 75 66 188 158 570 539 769 766 118 135 127
145 181 210 28 33 52 62 55 65 3 3 46 57 96 120 403 510 758 1071 1036 1640
103 211 133 277 253 565 69 163 169 436 228 620 31 98 79 252 82 265 6 21 22
81 47 170 48 175 145 605 163 725 2 17 11 68 19 115 8 47 17 103 20 125 3 22
8 51 11 65 2 14 7 48 10 75 3 28 7 61 10 75 2 14 7 52 10 85 3 33 8 78 11 100
6 55 19 188 29 310 25 312 25 1094 1 1290 -2 17 -7 71 -10 120 -4 50 -8 101
-11 115 -2 14 -6 57 -9 95 -3 39 -8 80 -10 92 -3 12 -7 48 -11 80 -7 62 -13
113 -20 153 -2 14 -7 45 -10 70 -12 89 -13 94 -55 320 -31 164 -85 411 -115
524 -9 33 -33 97 -54 142 -117 249 -314 424 -576 513 -172 57 -353 70 -550 37
-177 -29 -616 -35 -840 -11 -33 4 -73 8 -90 10 -82 8 -161 18 -166 21 -4 2
-24 6 -45 9 -84 12 -205 38 -329 70 -1032 266 -1913 927 -2472 1855 -233 388
-425 894 -498 1315 -2 17 -7 39 -9 50 -2 11 -7 45 -12 75 -4 30 -8 57 -9 60
-2 8 -18 142 -20 170 -7 74 -18 316 -18 390 0 95 11 323 18 373 2 18 9 75 16
127 6 52 13 104 15 115 36 187 15 419 -52 582 -8 18 -14 35 -14 38 1 8 -49 92
-94 160 -109 165 -287 299 -481 364 -165 55 -648 169 -870 205 -16 3 -73 12
-125 21 -52 9 -106 18 -120 20 -37 6 -158 23 -215 30 -27 3 -63 8 -80 10 -16
2 -57 6 -90 10 -33 3 -78 8 -100 10 -79 8 -247 21 -410 31 -96 6 -753 12 -758
7z m688 -4336 c17 -3 59 -8 95 -11 36 -4 79 -9 95 -11 17 -3 48 -7 70 -10 117
-14 286 -45 437 -80 491 -113 1066 -363 1493 -648 287 -192 496 -366 760 -631
269 -270 501 -568 691 -886 202 -338 371 -721 473 -1072 35 -121 68 -243 75
-278 2 -14 11 -56 20 -95 16 -77 42 -225 51 -295 3 -25 10 -76 15 -115 20
-150 24 -240 25 -520 0 -254 -7 -447 -20 -526 -2 -13 -6 -48 -9 -77 -13 -115
-41 -281 -68 -397 -11 -49 -22 -100 -23 -112 -2 -11 -6 -30 -9 -41 -4 -11 -9
-29 -11 -39 -10 -42 -86 -295 -113 -373 -83 -240 -230 -564 -358 -786 -158
-274 -393 -599 -588 -814 -76 -82 -300 -305 -365 -360 -35 -30 -71 -62 -80
-71 -9 -8 -50 -42 -91 -75 -41 -32 -77 -62 -80 -65 -25 -29 -411 -289 -515
-345 -11 -6 -56 -32 -100 -56 -229 -129 -579 -279 -830 -356 -140 -44 -339
-98 -394 -107 -19 -3 -37 -7 -40 -9 -3 -2 -22 -7 -41 -10 -19 -3 -46 -8 -60
-11 -86 -18 -206 -36 -335 -51 -33 -3 -68 -8 -79 -10 -100 -18 -676 -26 -836
-11 -147 14 -303 32 -360 42 -14 3 -64 12 -113 20 -83 15 -239 49 -357 79
-124 32 -422 128 -495 160 -16 8 -82 35 -145 62 -107 44 -334 156 -475 234
-112 62 -338 209 -465 303 -611 452 -1120 1062 -1441 1725 -39 81 -75 154 -79
163 -63 124 -226 596 -254 732 -3 12 -18 81 -34 152 -17 72 -33 146 -36 165
-3 19 -10 67 -16 105 -6 39 -13 82 -15 97 -3 15 -8 49 -11 75 -3 27 -7 64 -9
83 -26 232 -26 713 0 955 8 82 16 142 20 165 2 14 7 43 10 65 5 35 12 77 29
175 2 14 7 36 10 50 3 14 8 36 11 50 87 452 318 1035 578 1455 270 436 618
845 962 1130 26 22 53 45 59 51 6 5 52 42 101 80 527 410 1127 702 1765 858
147 36 319 71 400 81 25 3 52 8 60 10 8 2 44 7 80 10 36 4 76 8 90 10 14 2 65
7 114 10 49 3 91 7 94 9 5 6 630 -1 667 -7z"/>
</g>
</svg>
