<svg width="360" height="56" viewBox="0 0 360 56" fill="none" xmlns="http://www.w3.org/2000/svg">
<path fill-rule="evenodd" clip-rule="evenodd" d="M47.4877 0.0245578C43.9356 -0.259754 40.8606 1.95488 39.8187 5.0954C39.4409 6.23638 39.3175 7.49521 39.5662 8.81202C40.1517 11.9226 42.7067 14.3673 45.8417 14.8013C46.9583 14.9565 48.032 14.8536 49.0196 14.5562C52.248 13.5836 54.5524 10.4805 54.2906 6.87982C54.0268 3.26607 51.0995 0.31448 47.4877 0.0245578ZM45.9052 19.1501C46.7787 19.2193 47.6354 19.1931 48.464 19.0809C49.9286 18.8808 51.3352 19.7599 51.6943 21.1927C52.3022 23.6392 52.5678 26.2224 52.4332 28.884C51.7635 42.0895 41.1767 52.8447 27.9824 53.7051C12.2069 54.7339 -0.867714 41.7285 0.0450752 25.9773C0.804486 12.8485 11.3782 2.21115 24.4996 1.35635C27.5447 1.15621 30.487 1.48728 33.2478 2.25792C34.6675 2.65258 35.5204 4.07226 35.2791 5.52562C35.1051 6.57308 35.0715 7.66731 35.1987 8.78959C35.8253 14.315 40.3612 18.7031 45.9052 19.1501ZM12.609 28.4164C13.0374 35.21 18.5515 40.7222 25.345 41.1524C33.5845 41.6743 40.3761 34.8808 39.8561 26.6432C39.4278 19.8497 33.9137 14.3374 27.1201 13.9072C18.8807 13.3853 12.089 20.177 12.609 28.4164ZM307.541 17.5471H307.084C305.334 17.5471 303.914 16.1274 303.912 14.3748C303.912 12.6221 305.334 11.2024 307.084 11.2024H307.541C309.293 11.2024 310.713 12.6221 310.713 14.3748C310.713 16.1274 309.292 17.5471 307.541 17.5471ZM205.681 11.7973H198.857V46.1391H205.681V11.7973ZM180.693 20.1957C183.218 20.1957 185.493 20.7699 187.517 21.9184C189.54 23.0668 191.119 24.6549 192.251 26.6862C193.384 28.7175 193.951 30.9957 193.951 33.5209C193.951 36.046 193.384 38.3242 192.251 40.3556C191.117 42.3869 189.54 43.9768 187.517 45.1253C185.493 46.2737 183.218 46.848 180.693 46.848C177.665 46.848 175.033 45.9127 172.798 44.0423L171.977 46.1409H166.956V11.7991H173.78V22.2719C175.802 20.8877 178.106 20.1957 180.693 20.1957ZM180.147 40.3892C182.124 40.3892 183.764 39.7364 185.064 38.4271C186.364 37.1178 187.015 35.483 187.015 33.5209C187.015 31.5288 186.364 29.8791 185.064 28.5697C183.764 27.2623 182.124 26.6076 180.147 26.6076C178.17 26.6076 176.526 27.266 175.218 28.581C173.911 29.8959 173.256 31.5438 173.256 33.5209C173.256 35.483 173.909 37.1197 175.218 38.4271C176.526 39.7346 178.168 40.3892 180.147 40.3892ZM91.7373 14.6498C93.7986 15.4728 95.5549 16.6007 97.0083 18.039C98.4617 19.4756 99.6026 21.2057 100.431 23.2296C101.26 25.2534 101.675 27.4288 101.675 29.7557C101.675 32.0975 101.256 34.2841 100.42 36.3154C99.5839 38.3448 98.4392 40.0807 96.9859 41.5172C95.5325 42.9556 93.7761 44.0853 91.7149 44.9065C89.6536 45.7276 87.4446 46.1391 85.0859 46.1391H72.7184V13.4171H85.0859C87.4596 13.4171 89.6761 13.8286 91.7373 14.6498ZM84.9251 39.5681C87.7233 39.5681 90.009 38.6516 91.7822 36.8186C93.5554 34.9855 94.442 32.6306 94.4401 29.7557C94.4401 26.8807 93.5535 24.5352 91.7822 22.7171C90.009 20.899 87.7233 19.9899 84.9251 19.9899H79.7906V39.5681H84.9251ZM118.857 20.1957C121.414 20.1957 123.734 20.77 125.817 21.9184C127.901 23.0669 129.536 24.6605 130.723 26.6993C131.909 28.7381 132.502 31.0126 132.502 33.5228C132.502 36.018 131.909 38.2832 130.723 40.322C129.538 42.3608 127.901 43.9582 125.817 45.1141C123.732 46.2701 121.412 46.848 118.857 46.848C116.285 46.848 113.958 46.2701 111.875 45.1141C109.789 43.9582 108.158 42.3608 106.98 40.322C105.801 38.285 105.212 36.018 105.212 33.5228C105.212 30.9977 105.801 28.7194 106.98 26.6881C108.158 24.6568 109.791 23.0669 111.875 21.9184C113.958 20.77 116.285 20.1957 118.857 20.1957ZM118.857 40.4342C120.819 40.4342 122.432 39.7907 123.694 38.5057C124.957 37.2207 125.589 35.5598 125.589 33.5191C125.589 31.4803 124.957 29.8174 123.694 28.5324C122.432 27.2474 120.819 26.6039 118.857 26.6039C116.895 26.6039 115.283 27.2474 114.02 28.5324C112.756 29.8193 112.125 31.4803 112.125 33.5191C112.125 35.5579 112.758 37.2207 114.02 38.5057C115.283 39.7907 116.895 40.4342 118.857 40.4342ZM153.929 34.7068C153.929 36.4875 153.487 37.8866 152.604 38.906C151.721 39.9254 150.491 40.4342 148.908 40.4342C147.326 40.4342 146.086 39.9291 145.19 38.9172C144.292 37.9053 143.843 36.5024 143.843 34.7068V20.9009H137.02V35.4812C137.02 38.8892 138.11 41.635 140.293 43.7187C142.476 45.8024 145.347 46.8443 148.906 46.8443C152.481 46.8443 155.348 45.8024 157.509 43.7187C159.669 41.635 160.748 38.8892 160.748 35.4812V20.9009H153.925V34.7068H153.929ZM223.639 20.1938C226.162 20.1938 228.429 20.7924 230.438 21.9858C232.447 23.181 233.99 24.7821 235.071 26.7873C236.151 28.7961 236.691 31.0089 236.691 33.4274C236.691 34.112 236.646 34.7816 236.555 35.4363H217.455C217.743 37.1571 218.432 38.4758 219.52 39.3961C220.607 40.3163 221.98 40.7765 223.639 40.7765C224.81 40.7765 225.863 40.5184 226.798 40.0003C227.734 39.4821 228.459 38.7676 228.977 37.8548H236.141C235.23 40.6081 233.648 42.7947 231.396 44.4146C229.144 46.0344 226.557 46.8443 223.637 46.8443C221.189 46.8443 218.963 46.2626 216.963 45.0991C214.964 43.9357 213.393 42.3346 212.252 40.2958C211.111 38.257 210.54 35.9993 210.54 33.5191C210.54 31.0257 211.107 28.7587 212.24 26.7199C213.374 24.6811 214.941 23.0837 216.941 21.9278C218.942 20.7718 221.174 20.1938 223.639 20.1938ZM219.805 27.268C218.755 28.1059 218.031 29.2769 217.637 30.7826H229.868C229.396 29.2469 228.626 28.0667 227.552 27.2455C226.48 26.4244 225.175 26.0129 223.639 26.0129C222.132 26.0129 220.854 26.4319 219.805 27.268ZM262.075 21.9184C260.059 20.77 257.805 20.1957 255.31 20.1957C252.175 20.1957 249.476 21.2002 247.209 23.2072L246.045 20.9028H241.551V55.2446H248.374V44.7718C250.443 46.1859 252.755 46.8929 255.31 46.8929C257.805 46.8929 260.059 46.3149 262.075 45.159C264.092 44.003 265.668 42.4019 266.809 40.3556C267.95 38.3093 268.521 36.0311 268.521 33.5209C268.521 31.0108 267.95 28.7363 266.809 26.6975C265.67 24.6605 264.092 23.0669 262.075 21.9184ZM259.657 38.4721C258.357 39.7814 256.716 40.4342 254.739 40.4342C252.762 40.4342 251.122 39.7758 249.822 38.4608C248.522 37.1459 247.871 35.498 247.871 33.5209C247.871 31.5439 248.522 29.896 249.822 28.581C251.122 27.2661 252.762 26.6077 254.739 26.6077C256.716 26.6077 258.357 27.2624 259.657 28.5698C260.959 29.8791 261.608 31.5289 261.608 33.5209C261.608 35.513 260.959 37.1646 259.657 38.4721ZM285.385 20.1957C287.942 20.1957 290.261 20.77 292.345 21.9184C294.429 23.0669 296.064 24.6605 297.251 26.6993C298.437 28.7381 299.03 31.0126 299.03 33.5228C299.03 36.018 298.437 38.2832 297.251 40.322C296.064 42.3608 294.429 43.9582 292.345 45.1141C290.26 46.2701 287.94 46.848 285.385 46.848C282.813 46.848 280.486 46.2701 278.403 45.1141C276.317 43.9582 274.686 42.3608 273.508 40.322C272.329 38.285 271.74 36.018 271.74 33.5228C271.74 30.9977 272.329 28.7194 273.508 26.6881C274.686 24.6568 276.319 23.0669 278.403 21.9184C280.486 20.77 282.813 20.1957 285.385 20.1957ZM285.385 40.4342C287.347 40.4342 288.96 39.7907 290.222 38.5057C291.485 37.2207 292.117 35.5598 292.117 33.5191C292.117 31.4803 291.485 29.8174 290.222 28.5324C288.96 27.2474 287.347 26.6039 285.385 26.6039C283.423 26.6039 281.811 27.2474 280.548 28.5324C279.284 29.8193 278.653 31.4803 278.653 33.5191C278.653 35.5579 279.286 37.2207 280.548 38.5057C281.811 39.7907 283.423 40.4342 285.385 40.4342ZM310.737 20.9027H303.914V46.1391H310.737V20.9027ZM331.616 20.3079C329.927 20.3079 328.355 20.639 326.904 21.3012C325.451 21.9633 324.239 22.8723 323.264 24.0283L321.94 20.9027H317.262V46.1391H324.085V32.8812C324.085 30.8424 324.59 29.2338 325.602 28.0554C326.614 26.877 327.994 26.2878 329.743 26.2878C332.678 26.2878 334.146 28.1751 334.146 31.946V46.1391H340.97V30.8518C340.97 27.642 340.126 25.0832 338.437 23.1735C336.748 21.2637 334.474 20.3079 331.616 20.3079ZM354.024 39.065C354.693 39.7346 355.651 40.0694 356.899 40.0694V40.0676H360V46.1372H355.163C352.395 46.1372 350.208 45.3348 348.603 43.7299C346.998 42.1251 346.196 39.9235 346.196 37.1234V26.3757L346.181 20.899L346.179 14.3056H352.905V20.9009H359.865V26.3776H353.019V36.2125C353.019 37.4452 353.354 38.3954 354.024 39.065Z" fill="#FEFEFE"/>
</svg>
